# xmcd CD database file
#
# Track frame offsets:
#	150
#	33277
#	46796
#	57962
#	74428
#	86723
#	99750
#	149550
#	163461
#	181218
#	196032
#	208165
#	219375
#	232560
#	245936
#	260429
#
# Disc length: 3711 seconds
#
# Revision: 0
# Processed by: cddbd v1.5.2PL0 Copyright (c) Steve Scherf et al.
# Submitted via: CDex 1.51
#
DISCID=e30e7d10
DTITLE=Various Artist - Jazz - The Essential Collection disc 18
DYEAR=1900
DGENRE=Jazz
TTITLE0=Miles Davis - A Night In Tunisia
TTITLE1=Lee Konitz - Rebecca
TTITLE2=Oscar Peterson - Prelude To A Kiss
TTITLE3=Modern Jazz Quartet - Concorde
TTITLE4=Benny Carter - Lullaby In Blue
TTITLE5=Illinois Jacquet - Somewhere Along The Way
TTITLE6=Zoot Sims - East Of The Sun
TTITLE7=Jay and Kay Quintet (Jay Jay Johnston and Kai Winding) - Dinner For One
TTITLE8=Al Caiola - There Will Never Be Another You
TTITLE9=Bunk Johnson and The Yerba Buena Jazz Band - Ace In The Hole
TTITLE10=Chet Baker Quartet - Happy Little Sunbeam
TTITLE11=Dave Brubeck - Spring Is Here
TTITLE12=Billie Holiday - Somebody's On My Mind
TTITLE13=Chris Barber's Jazz Band (feat. Monty Sunshine) - Whistlin' Rufus
TTITLE14=Bud Powell - It Could Happen To You
TTITLE15=The Best From The West (Shorty Rogers, Pete Rugolo, John Graas, Marty Paich and Buddy Collette directed by Leonard Feather) - Here's Pete
EXTD=
EXTT0=
EXTT1=
EXTT2=
EXTT3=
EXTT4=
EXTT5=
EXTT6=
EXTT7=
EXTT8=
EXTT9=
EXTT10=
EXTT11=
EXTT12=
EXTT13=
EXTT14=
EXTT15=
PLAYORDER=
